<svg width="24" height="25" viewBox="0 0 24 25" fill="none" xmlns="http://www.w3.org/2000/svg">
<g clip-path="url(#clip0_888_45458)">
<path fill-rule="evenodd" clip-rule="evenodd" d="M12 0.5C18.596 0.5 24 5.90397 24 12.5C24 19.096 18.596 24.5 12 24.5C5.40397 24.5 0 19.096 0 12.5C0 5.90397 5.40397 0.5 12 0.5ZM8.4 12.5L10.2 14.3L16.1325 8.60596C16.8477 7.89073 17.9603 9.00331 17.245 9.71854L10.5695 16.394C10.2517 16.6325 9.77483 16.6325 9.53642 16.394L6.75497 13.5331C6.03974 12.8974 7.2 11.3 8.4 12.5Z" fill="#13C51A"/>
</g>
<defs>
<clipPath id="clip0_888_45458">
<rect width="24" height="24" fill="white" transform="translate(0 0.5)"/>
</clipPath>
</defs>
</svg>
