<svg width="24" height="24" viewBox="0 0 24 24" fill="none" xmlns="http://www.w3.org/2000/svg">
<path d="M12.0001 3.12109C7.10153 3.12109 3.12012 7.1025 3.12012 12.0011C3.12012 16.8997 7.10155 20.8811 12.0001 20.8811C16.8987 20.8811 20.8801 16.8997 20.8801 12.0011C20.8801 7.1025 16.8987 3.12109 12.0001 3.12109ZM12.0001 4.08109C16.3799 4.08109 19.9201 7.62133 19.9201 12.0011C19.9201 16.3809 16.3799 19.9211 12.0001 19.9211C7.62036 19.9211 4.08012 16.3809 4.08012 12.0011C4.08012 7.62133 7.62036 4.08109 12.0001 4.08109ZM12.0001 5.76109C11.735 5.76109 11.5201 5.97599 11.5201 6.24109V12.0011C11.5201 12.1786 11.6169 12.3305 11.7601 12.4136C13.2802 13.2904 14.8113 14.1742 16.3351 15.0536C16.5647 15.1861 16.8551 15.1107 16.9876 14.8811C17.1202 14.6515 17.0447 14.3611 16.8151 14.2286L12.4801 11.7236V6.24109C12.4801 5.97599 12.2652 5.76109 12.0001 5.76109Z" fill="#1648CE" stroke="#1648CE"/>
</svg>
