<svg width="19" height="19" viewBox="0 0 19 19" fill="none" xmlns="http://www.w3.org/2000/svg">
<g clip-path="url(#clip0_355_28548)">
<path d="M16.9213 9.51809C16.9391 9.56236 16.9479 9.60972 16.9472 9.65742C16.9472 13.8285 13.5583 17.2174 9.38723 17.2174C5.21612 17.2174 1.82723 13.8285 1.82723 9.65742C1.82723 5.607 5.02288 2.29487 9.02723 2.10656V0.756915L9.12223 0.811141V1.27758V2.10656V2.20492L9.03208 2.20961L8.99478 2.21155C5.05247 2.41652 1.92223 5.66142 1.92223 9.65742C1.92223 13.7846 5.26004 17.1224 9.38723 17.1224C13.5144 17.1224 16.8522 13.7846 16.8522 9.65742V9.65608V9.64858H16.8522C16.8522 9.65108 16.8522 9.65358 16.8522 9.65608C16.8522 9.65653 16.8522 9.65697 16.8521 9.65742C16.8515 9.68953 16.8451 9.72128 16.8331 9.75113C16.82 9.7837 16.8006 9.81336 16.7759 9.83836C16.7513 9.86336 16.7219 9.88322 16.6895 9.89676C16.6571 9.91032 16.6223 9.9173 16.5872 9.9173C16.5521 9.9173 16.5174 9.91032 16.485 9.89676C16.4526 9.88322 16.4232 9.86336 16.3986 9.83836C16.3739 9.81336 16.3545 9.7837 16.3414 9.75113C16.3294 9.72128 16.3229 9.68953 16.3223 9.65742C16.3223 9.65697 16.3223 9.65653 16.3223 9.65608C16.3223 9.65358 16.3223 9.65108 16.3223 9.64858L16.3222 9.65608L16.3222 9.65742H16.3222C16.3222 13.4834 13.2132 16.5924 9.38723 16.5924C5.5613 16.5924 2.45223 13.4834 2.45223 9.65742C2.45223 5.95422 5.36543 2.92276 9.02187 2.73259C9.03343 2.73199 9.04501 2.73142 9.05659 2.73087L9.12223 2.72779V2.8357V3.63727V4.1037L9.02723 4.15793V3.46163C9.03804 3.46101 9.04886 3.46042 9.05968 3.45986L9.02723 2.8357H8.40223V2.8967C5.089 3.37321 2.54723 6.21071 2.54723 9.65742C2.54723 13.4394 5.60522 16.4974 9.38723 16.4974C13.1692 16.4974 16.2272 13.4394 16.2272 9.65742C16.2266 9.60972 16.2354 9.56236 16.2532 9.51809C16.2709 9.47382 16.2974 9.43353 16.3309 9.39955C16.3643 9.36558 16.4043 9.3386 16.4483 9.32019C16.4923 9.30178 16.5395 9.2923 16.5872 9.2923C16.6349 9.2923 16.6822 9.30178 16.7262 9.32019C16.7702 9.3386 16.8101 9.36558 16.8436 9.39955C16.8771 9.43353 16.9035 9.47382 16.9213 9.51809Z" stroke="white" stroke-width="1.25"/>
<path d="M6.59755 13.1055V7.88547L5.58055 8.11947V7.41747L6.97555 6.80547H7.58755V13.1055H6.59755ZM11.0635 13.2135C10.6195 13.2135 10.2355 13.1355 9.91152 12.9795C9.58752 12.8175 9.32952 12.5985 9.13752 12.3225C8.95152 12.0405 8.83752 11.7225 8.79552 11.3685H9.73152C9.79152 11.6685 9.94152 11.9175 10.1815 12.1155C10.4215 12.3075 10.7185 12.4035 11.0725 12.4035C11.3365 12.4035 11.5645 12.3405 11.7565 12.2145C11.9485 12.0825 12.0985 11.9085 12.2065 11.6925C12.3145 11.4765 12.3685 11.2335 12.3685 10.9635C12.3685 10.5375 12.2485 10.1985 12.0085 9.94647C11.7685 9.68847 11.4655 9.55947 11.0995 9.55947C10.7875 9.55947 10.5205 9.63447 10.2985 9.78447C10.0765 9.92847 9.91452 10.1115 9.81252 10.3335H8.90352L9.44352 6.80547H12.8455V7.64247H10.1635L9.83952 9.32547C9.97752 9.16947 10.1665 9.04047 10.4065 8.93847C10.6525 8.83047 10.9285 8.77647 11.2345 8.77647C11.6605 8.77647 12.0265 8.87547 12.3325 9.07347C12.6385 9.26547 12.8725 9.52647 13.0345 9.85647C13.2025 10.1865 13.2865 10.5525 13.2865 10.9545C13.2865 11.3745 13.1965 11.7555 13.0165 12.0975C12.8365 12.4395 12.5785 12.7125 12.2425 12.9165C11.9125 13.1145 11.5195 13.2135 11.0635 13.2135Z" fill="white"/>
</g>
<defs>
<clipPath id="clip0_355_28548">
<rect width="18" height="18" fill="white" transform="translate(0.310547 0.105469)"/>
</clipPath>
</defs>
</svg>