<svg width="21" height="21" viewBox="0 0 21 21" fill="none" xmlns="http://www.w3.org/2000/svg">
<path d="M8.13995 4.48828H6.2677C5.93666 4.48828 5.61919 4.61978 5.38511 4.85386C5.15103 5.08794 5.01953 5.40541 5.01953 5.73645V7.6087M16.253 7.6087V5.73645C16.253 5.40541 16.1215 5.08794 15.8875 4.85386C15.6534 4.61978 15.3359 4.48828 15.0049 4.48828H13.1326M13.1326 15.7218H15.0049C15.3359 15.7218 15.6534 15.5903 15.8875 15.3562C16.1215 15.1221 16.253 14.8047 16.253 14.4736V12.6014M5.01953 12.6014V14.4736C5.01953 14.8047 5.15103 15.1221 5.38511 15.3562C5.61919 15.5903 5.93666 15.7218 6.2677 15.7218H8.13995" stroke="white" stroke-width="1.5" stroke-linecap="round" stroke-linejoin="round"/>
</svg>