<svg width="24" height="24" viewBox="0 0 24 24" fill="none" xmlns="http://www.w3.org/2000/svg">
<path d="M12.0002 21.6C12.9794 21.6 13.8002 20.9208 14.0234 20.0088H9.97461C10.1978 20.9208 11.0186 21.6 11.9978 21.6H12.0002Z" fill="#333333"/>
<path d="M12.8686 4.13266C13.0078 3.94546 13.0846 3.72226 13.0846 3.48466C13.0846 2.88466 12.5974 2.39746 11.9974 2.39746C11.3974 2.39746 10.9102 2.88466 10.9102 3.48466C10.9102 3.72226 10.987 3.94546 11.1262 4.13266C11.4094 4.09186 11.6998 4.07026 11.995 4.07026C12.2902 4.07026 12.5806 4.09186 12.8638 4.13266H12.8686Z" fill="#333333"/>
<path d="M6.53528 10.3486V13.1422C6.53528 14.215 5.90888 15.2062 4.93688 15.6646C4.32968 15.9526 3.93848 16.5718 3.93848 17.2414C3.93848 18.3214 4.81688 19.1998 5.89688 19.1998H18.1033C19.1833 19.1998 20.0617 18.3214 20.0617 17.2414C20.0617 16.5694 19.6705 15.9502 19.0633 15.6646C18.0937 15.2062 17.4649 14.215 17.4649 13.1422V10.3486C17.4649 10.0894 17.4409 9.83979 17.4049 9.59019C17.1241 9.67899 16.8265 9.72699 16.5193 9.72699C14.8921 9.72699 13.5697 8.40459 13.5697 6.77739C13.5697 6.22539 13.7257 5.70699 13.9921 5.26539C13.3729 5.02299 12.7033 4.88379 12.0001 4.88379C8.98808 4.88379 6.53528 7.33419 6.53528 10.3486Z" fill="#333333"/>
<path d="M16.5193 8.91352C17.6977 8.91352 18.6577 7.95352 18.6577 6.77512C18.6577 5.59672 17.6977 4.63672 16.5193 4.63672C15.3409 4.63672 14.3809 5.59672 14.3809 6.77512C14.3809 7.95352 15.3409 8.91352 16.5193 8.91352Z" fill="#ED1F48"/>
</svg>
