<svg width="20" height="20" viewBox="0 0 20 20" fill="none" xmlns="http://www.w3.org/2000/svg">
<path d="M2.46967 9.46967C2.17678 9.76256 2.17678 10.2374 2.46967 10.5303L7.24264 15.3033C7.53553 15.5962 8.01041 15.5962 8.3033 15.3033C8.59619 15.0104 8.59619 14.5355 8.3033 14.2426L4.06066 10L8.3033 5.75736C8.59619 5.46447 8.59619 4.98959 8.3033 4.6967C8.01041 4.40381 7.53553 4.40381 7.24264 4.6967L2.46967 9.46967ZM17 10.75C17.4142 10.75 17.75 10.4142 17.75 10C17.75 9.58579 17.4142 9.25 17 9.25V10.75ZM3 10.75H17V9.25H3V10.75Z" fill="#333333"/>
</svg>
