<svg width="19" height="19" viewBox="0 0 19 19" fill="none" xmlns="http://www.w3.org/2000/svg">
<g clip-path="url(#clip0_355_28545)">
<path d="M1.68612 9.51809C1.66833 9.56236 1.65952 9.60972 1.66019 9.65742C1.66019 13.8285 5.04909 17.2174 9.22019 17.2174C13.3913 17.2174 16.7802 13.8285 16.7802 9.65742C16.7802 5.607 13.5845 2.29487 9.58019 2.10656V0.756915L9.48519 0.811141V1.27758V2.10656V2.20492L9.57535 2.20961L9.61264 2.21155C13.555 2.41652 16.6852 5.66142 16.6852 9.65742C16.6852 13.7846 13.3474 17.1224 9.22019 17.1224C5.093 17.1224 1.75519 13.7846 1.75519 9.65742V9.65608V9.64858H1.75525C1.75522 9.65108 1.75522 9.65358 1.75525 9.65608C1.75526 9.65653 1.75527 9.65697 1.75528 9.65742C1.75589 9.68953 1.76234 9.72128 1.77434 9.75113C1.78743 9.7837 1.80686 9.81336 1.83152 9.83836C1.85617 9.86336 1.88554 9.88322 1.91793 9.89676C1.95032 9.91032 1.98509 9.9173 2.02019 9.9173C2.0553 9.9173 2.09006 9.91032 2.12246 9.89676C2.15484 9.88322 2.18422 9.86336 2.20887 9.83836C2.23352 9.81336 2.25296 9.7837 2.26605 9.75113C2.27804 9.72128 2.28449 9.68953 2.28511 9.65742C2.28512 9.65697 2.28512 9.65653 2.28513 9.65608C2.28517 9.65358 2.28517 9.65108 2.28513 9.64858L2.28524 9.65608L2.28525 9.65742H2.28519C2.28519 13.4834 5.39426 16.5924 9.22019 16.5924C13.0461 16.5924 16.1552 13.4834 16.1552 9.65742C16.1552 5.95422 13.242 2.92276 9.58555 2.73259C9.57399 2.73199 9.56241 2.73142 9.55083 2.73087L9.48519 2.72779V2.8357V3.63727V4.1037L9.58019 4.15793V3.46163C9.56938 3.46101 9.55856 3.46042 9.54774 3.45986L9.58019 2.8357H10.2052V2.8967C13.5184 3.37321 16.0602 6.21071 16.0602 9.65742C16.0602 13.4394 13.0022 16.4974 9.22019 16.4974C5.43818 16.4974 2.38019 13.4394 2.38019 9.65742C2.38087 9.60972 2.37205 9.56236 2.35426 9.51809C2.33648 9.47382 2.31007 9.43353 2.27657 9.39955C2.24307 9.36558 2.20316 9.3386 2.15915 9.32019C2.11513 9.30178 2.0679 9.2923 2.02019 9.2923C1.97248 9.2923 1.92525 9.30178 1.88124 9.32019C1.83722 9.3386 1.79731 9.36558 1.76381 9.39955C1.73032 9.43353 1.70391 9.47382 1.68612 9.51809Z" stroke="white" stroke-width="1.25"/>
<path d="M6.42958 13.1055V7.88547L5.41258 8.11947V7.41747L6.80758 6.80547H7.41958V13.1055H6.42958ZM10.8955 13.2135C10.4515 13.2135 10.0675 13.1355 9.74355 12.9795C9.41955 12.8175 9.16155 12.5985 8.96955 12.3225C8.78355 12.0405 8.66955 11.7225 8.62755 11.3685H9.56355C9.62355 11.6685 9.77355 11.9175 10.0135 12.1155C10.2535 12.3075 10.5505 12.4035 10.9045 12.4035C11.1685 12.4035 11.3965 12.3405 11.5885 12.2145C11.7805 12.0825 11.9305 11.9085 12.0385 11.6925C12.1465 11.4765 12.2005 11.2335 12.2005 10.9635C12.2005 10.5375 12.0805 10.1985 11.8405 9.94647C11.6005 9.68847 11.2975 9.55947 10.9315 9.55947C10.6195 9.55947 10.3525 9.63447 10.1305 9.78447C9.90855 9.92847 9.74655 10.1115 9.64455 10.3335H8.73555L9.27555 6.80547H12.6775V7.64247H9.99555L9.67155 9.32547C9.80955 9.16947 9.99855 9.04047 10.2385 8.93847C10.4845 8.83047 10.7605 8.77647 11.0665 8.77647C11.4925 8.77647 11.8585 8.87547 12.1645 9.07347C12.4705 9.26547 12.7045 9.52647 12.8665 9.85647C13.0345 10.1865 13.1185 10.5525 13.1185 10.9545C13.1185 11.3745 13.0285 11.7555 12.8485 12.0975C12.6685 12.4395 12.4105 12.7125 12.0745 12.9165C11.7445 13.1145 11.3515 13.2135 10.8955 13.2135Z" fill="white"/>
</g>
<defs>
<clipPath id="clip0_355_28545">
<rect width="18" height="18" fill="white" transform="translate(0.142578 0.105469)"/>
</clipPath>
</defs>
</svg>