<svg width="20" height="20" viewBox="0 0 20 20" fill="none" xmlns="http://www.w3.org/2000/svg">
<g clip-path="url(#clip0_748_20465)">
<path d="M13.8641 2.54135C13.8641 2.62736 13.8435 2.71212 13.8042 2.78863C13.7649 2.86514 13.708 2.9312 13.6381 2.98135L11.1281 4.78135C11.0471 4.83889 10.9519 4.87308 10.8529 4.88019C10.7538 4.88729 10.6547 4.86703 10.5663 4.82162C10.478 4.77621 10.4038 4.7074 10.3519 4.6227C10.3 4.538 10.2724 4.44068 10.2721 4.34135V3.25535C10.2004 3.27532 10.1265 3.28607 10.0521 3.28735C8.65698 3.28758 7.29053 3.68348 6.11136 4.42908C4.93218 5.17469 3.98864 6.23942 3.39026 7.4997C2.79188 8.75999 2.56318 10.1641 2.73073 11.5492C2.89828 12.9342 3.45519 14.2433 4.33683 15.3245C5.21847 16.4058 6.38867 17.2148 7.71162 17.6578C9.03457 18.1007 10.456 18.1593 11.811 17.8269C13.1659 17.4944 14.3988 16.7845 15.3665 15.7796C16.3342 14.7747 16.997 13.5159 17.2781 12.1493C17.2927 12.0283 17.3323 11.9116 17.3944 11.8066C17.4564 11.7016 17.5395 11.6106 17.6385 11.5394C17.7375 11.4681 17.8501 11.4182 17.9694 11.3927C18.0886 11.3672 18.2119 11.3667 18.3313 11.3913C18.4508 11.4158 18.5638 11.4649 18.6634 11.5354C18.7629 11.6058 18.8467 11.6962 18.9096 11.8007C18.9724 11.9052 19.0129 12.0216 19.0285 12.1425C19.0441 12.2635 19.0344 12.3863 19.0001 12.5033C18.652 14.197 17.8307 15.7571 16.6315 17.0027C15.4323 18.2482 13.9044 19.1281 12.2251 19.5401C10.5459 19.9521 8.78427 19.8793 7.14474 19.3302C5.50522 18.7812 4.05506 17.7783 2.96264 16.4381C1.87022 15.0979 1.18034 13.4754 0.973115 11.7588C0.765888 10.0422 1.04981 8.3021 1.79191 6.74044C2.53401 5.17877 3.70385 3.85963 5.16561 2.93616C6.62737 2.0127 8.32108 1.5228 10.0501 1.52335C10.1245 1.52459 10.1984 1.53534 10.2701 1.55535V0.743349C10.2704 0.644022 10.298 0.546694 10.3499 0.461997C10.4018 0.377299 10.476 0.308487 10.5643 0.263079C10.6527 0.21767 10.7518 0.197411 10.8509 0.204512C10.9499 0.211614 11.0451 0.245805 11.1261 0.303349L13.6361 2.10335C13.7061 2.15308 13.7632 2.21873 13.8029 2.29488C13.8425 2.37103 13.8635 2.4555 13.8641 2.54135ZM17.3341 9.49935C17.3676 9.70536 17.473 9.89286 17.6315 10.0287C17.79 10.1645 17.9914 10.2398 18.2001 10.2413C18.2463 10.2424 18.2925 10.239 18.3381 10.2313C18.5111 10.2057 18.6727 10.1292 18.8021 10.0115C18.9315 9.89388 19.0231 9.74039 19.0651 9.57058C19.1071 9.40077 19.0976 9.22231 19.0379 9.05788C18.9782 8.89345 18.871 8.75049 18.7298 8.64717C18.5887 8.54385 18.42 8.48483 18.2452 8.47762C18.0704 8.47041 17.8974 8.51534 17.7483 8.60668C17.5991 8.69803 17.4804 8.83168 17.4074 8.99063C17.3344 9.14958 17.3102 9.32666 17.3381 9.49935H17.3341ZM15.3141 5.18135C15.5218 5.18071 15.7226 5.10681 15.8811 4.97268C16.0396 4.83854 16.1458 4.65276 16.1808 4.44806C16.2158 4.24336 16.1774 4.03287 16.0725 3.85367C15.9676 3.67446 15.8028 3.53803 15.6071 3.4684C15.4115 3.39878 15.1975 3.40042 15.003 3.47304C14.8084 3.54567 14.6457 3.68461 14.5435 3.86541C14.4414 4.04621 14.4063 4.25726 14.4444 4.4614C14.4826 4.66553 14.5915 4.84966 14.7521 4.98135C14.9105 5.11126 15.1092 5.18198 15.3141 5.18135ZM16.7841 5.80135C16.6322 5.88751 16.5093 6.01682 16.4309 6.17291C16.3526 6.329 16.3224 6.50483 16.3441 6.67812C16.3658 6.85141 16.4384 7.01436 16.5528 7.14631C16.6672 7.27827 16.8182 7.37329 16.9867 7.41933C17.1551 7.46538 17.3335 7.46038 17.4991 7.40496C17.6647 7.34955 17.8102 7.24621 17.917 7.10805C18.0238 6.96989 18.0872 6.80312 18.0992 6.62889C18.1111 6.45466 18.0711 6.2808 17.9841 6.12935C17.868 5.9272 17.6766 5.77922 17.4518 5.71775C17.2269 5.65629 16.9869 5.68635 16.7841 5.80135ZM14.7321 10.6573C14.7321 11.5806 14.4583 12.4831 13.9454 13.2507C13.4325 14.0184 12.7034 14.6167 11.8505 14.97C10.9975 15.3233 10.0589 15.4158 9.15343 15.2357C8.24792 15.0555 7.41617 14.611 6.76333 13.9581C6.1105 13.3053 5.66592 12.4735 5.4858 11.568C5.30569 10.6625 5.39813 9.72395 5.75144 8.87098C6.10475 8.01802 6.70306 7.28898 7.47071 6.77605C8.23836 6.26312 9.14087 5.98935 10.0641 5.98935C11.3021 5.98935 12.4895 6.48115 13.3649 7.35657C14.2403 8.23199 14.7321 9.41932 14.7321 10.6573ZM11.9181 11.7073L10.6321 10.4213V8.43335C10.6321 8.28271 10.5723 8.13823 10.4657 8.03171C10.3592 7.92519 10.2148 7.86535 10.0641 7.86535C9.91347 7.86535 9.76899 7.92519 9.66247 8.03171C9.55595 8.13823 9.49611 8.28271 9.49611 8.43335V10.8933L11.1141 12.5113C11.1646 12.5719 11.2273 12.6214 11.2979 12.6564C11.3686 12.6915 11.4459 12.7114 11.5247 12.715C11.6035 12.7186 11.6822 12.7057 11.7558 12.6771C11.8294 12.6486 11.8962 12.605 11.952 12.5492C12.0078 12.4934 12.0513 12.4266 12.0799 12.353C12.1084 12.2795 12.1213 12.2008 12.1178 12.1219C12.1142 12.0431 12.0942 11.9659 12.0592 11.8952C12.0241 11.8245 11.9747 11.7619 11.9141 11.7113L11.9181 11.7073Z" fill="#1648CE"/>
</g>
<defs>
<clipPath id="clip0_748_20465">
<rect width="20" height="20" fill="white"/>
</clipPath>
</defs>
</svg>
