<svg width="24" height="24" viewBox="0 0 24 24" fill="none" xmlns="http://www.w3.org/2000/svg">
<path fill-rule="evenodd" clip-rule="evenodd" d="M11.256 4.488C10.848 4.488 10.512 4.824 10.512 5.232V5.97601H13.512V5.232C13.512 4.824 13.176 4.488 12.768 4.488H11.256ZM15 6V5.25601C15 4.00801 13.992 3 12.744 3H11.256C10.008 3 8.99997 4.00801 8.99997 5.25601V6H5.25596C4.84796 6 4.51196 6.33599 4.51196 6.74399C4.51196 7.15199 4.84796 7.488 5.25596 7.488H5.32797L6.59997 18.984C6.71997 20.136 7.67996 20.976 8.83196 20.976H15.144C16.296 20.976 17.256 20.112 17.376 18.984L18.648 7.488H18.72C19.128 7.488 19.464 7.15199 19.464 6.74399C19.464 6.33599 19.128 6 18.72 6H15ZM17.16 7.488H6.83997L8.08797 18.816C8.13597 19.2 8.44796 19.488 8.83196 19.488H15.144C15.528 19.488 15.84 19.2 15.888 18.816L17.16 7.488ZM10.488 9.74399C10.896 9.74399 11.232 10.08 11.232 10.488V16.488C11.232 16.896 10.896 17.232 10.488 17.232C10.08 17.232 9.74397 16.896 9.74397 16.488V10.488C9.74397 10.08 10.08 9.74399 10.488 9.74399ZM13.488 9.74399C13.896 9.74399 14.232 10.08 14.232 10.488V16.488C14.232 16.896 13.896 17.232 13.488 17.232C13.08 17.232 12.744 16.896 12.744 16.488V10.488C12.744 10.08 13.08 9.74399 13.488 9.74399Z" fill="#1648CE"/>
</svg>
