<svg width="1438" height="312" viewBox="0 0 1438 312" fill="none" xmlns="http://www.w3.org/2000/svg">
<path d="M1438 192H0V0C254.667 41.6667 829.2 129.6 1090 148C1350.8 166.4 1430.67 90.3333 1438 50V192Z" fill="#00F0FF"/>
<path d="M1438 222H0V30C254.667 71.6667 829.2 159.6 1090 178C1350.8 196.4 1430.67 120.333 1438 80V222Z" fill="#1EB2D2"/>
<path d="M1438 252H0V60C254.667 101.667 829.2 189.6 1090 208C1350.8 226.4 1430.67 150.333 1438 110V252Z" fill="#254F75"/>
<path d="M1438 282H0V90C254.667 131.667 829.2 219.6 1090 238C1350.8 256.4 1430.67 180.333 1438 140V282Z" fill="#1B2A36"/>
<path d="M1438 312H0V120C254.667 161.667 829.2 249.6 1090 268C1350.8 286.4 1430.67 210.333 1438 170V312Z" fill="#121A21"/>
</svg>
